<?xml version="1.0" encoding="UTF-8" standalone="no" ?>
<!DOCTYPE svg PUBLIC "-//W3C//DTD SVG 1.1//EN" "http://www.w3.org/Graphics/SVG/1.1/DTD/svg11.dtd">
<svg xmlns="http://www.w3.org/2000/svg" xmlns:xlink="http://www.w3.org/1999/xlink" version="1.1" width="1080" height="1080" viewBox="0 0 1080 1080" xml:space="preserve">
<desc>Created with Fabric.js 4.2.0</desc>
<defs>
</defs>
<rect x="0" y="0" width="100%" height="100%" fill="transparent"></rect>
<g transform="matrix(1 0 0 1 540 540)" id="e772661a-d8d3-42ad-8cf5-f197784788a8"  >
<rect style="stroke: none; stroke-width: 1; stroke-dasharray: none; stroke-linecap: butt; stroke-dashoffset: 0; stroke-linejoin: miter; stroke-miterlimit: 4; fill: rgb(255,255,255); fill-rule: nonzero; opacity: 1;" vector-effect="non-scaling-stroke"  x="-540" y="-540" rx="0" ry="0" width="1080" height="1080" />
</g>
<g transform="matrix(1 0 0 1 540 540)" id="bc04ebfb-8864-4900-9dfb-904faeb1d932"  >
</g>
<g transform="matrix(0.22 0 0 0.22 543.27 540.86)" id="d9d7aa87-cfa7-417d-a210-ea0af383cf67"  >
<path style="stroke: rgb(0,0,0); stroke-width: 0; stroke-dasharray: none; stroke-linecap: butt; stroke-dashoffset: 0; stroke-linejoin: miter; stroke-miterlimit: 4; fill: rgb(173,9,215); fill-rule: nonzero; opacity: 1;" vector-effect="non-scaling-stroke"  transform=" translate(-2397.88, -2397.32)" d="M 2237 4794 C 2236 4793 2204 4789 2165 4786 C 2078 4778 2002 4766 1879 4739 L 1784 4718 L 1710 4491 C 1669 4367 1634 4263 1632 4260 C 1631 4258 1531 4305 1411 4364 L 1193 4473 L 1149 4446 C 1125 4431 1096 4414 1085 4407 C 1074 4400 1063 4392 1060 4389 C 1057 4386 1033 4369 1006 4350 C 944 4308 818 4206 764 4153 L 722 4114 L 1126 3912 L 1530 3709 L 1531 3662 C 1531 3636 1533 3595 1535 3570 C 1537 3545 1541 3463 1545 3386 L 1552 3247 L 1418 3254 C 1345 3258 1242 3263 1190 3266 C 1138 3268 1092 3274 1089 3278 C 1085 3282 993 3462 885 3678 C 777 3893 685 4070 681 4070 C 677 4070 660 4053 643 4033 C 625 4012 597 3979 579 3960 C 507 3880 351 3660 333 3613 C 330 3606 376 3503 435 3385 C 494 3266 541 3168 539 3167 C 537 3165 434 3131 310 3091 C 186 3051 84 3016 82 3015 C 76 3010 31 2780 20 2703 C 6 2597 -3 2430 6 2430 C 10 2430 223 2500 479 2585 C 735 2670 956 2740 970 2741 C 991 2742 1108 2737 1325 2725 C 1353 2724 1442 2719 1525 2715 C 1607 2711 1684 2707 1697 2705 C 1710 2704 1778 2644 1871 2551 L 2023 2399 L 1868 2246 C 1784 2162 1708 2093 1700 2093 C 1667 2093 1362 2078 1320 2075 C 1295 2073 1202 2069 1114 2065 L 953 2058 L 483 2214 C 224 2300 10 2370 6 2370 C -1 2370 6 2193 15 2138 C 17 2125 21 2095 24 2070 C 27 2045 32 2016 34 2005 C 36 1994 46 1945 55 1895 C 65 1846 77 1800 82 1793 C 87 1787 189 1749 308 1710 C 427 1670 528 1635 533 1631 C 537 1627 493 1530 435 1416 C 377 1302 330 1203 330 1196 C 330 1155 652 730 683 730 C 686 730 777 907 885 1122 C 993 1338 1085 1518 1088 1522 C 1095 1528 1161 1533 1428 1546 L 1551 1552 L 1545 1414 C 1541 1337 1536 1250 1535 1220 C 1533 1190 1531 1148 1531 1128 L 1530 1091 L 1125 888 L 721 685 L 768 642 C 881 538 1126 356 1183 334 C 1191 331 1293 377 1410 435 C 1527 494 1626 538 1630 533 C 1634 529 1670 426 1710 305 C 1750 184 1783 84 1784 83 C 1787 79 1966 41 2010 35 C 2035 32 2062 27 2070 25 C 2090 20 2207 9 2298 5 C 2369 1 2371 1 2364 23 C 2361 35 2290 249 2208 499 C 2125 748 2058 967 2057 984 C 2057 1014 2068 1234 2075 1355 C 2077 1388 2082 1480 2085 1560 C 2089 1640 2096 1712 2100 1720 C 2105 1728 2174 1800 2254 1879 L 2399 2023 L 2399 1034 C 2399 490 2399 34 2400 21 L 2400 -2 L 2532 4 C 2604 8 2666 13 2669 14 C 2672 16 2702 21 2735 24 C 2768 28 2802 33 2810 35 C 2818 37 2840 42 2857 45 C 2968 64 3153 118 3287 171 C 3763 359 4179 711 4446 1150 C 4563 1343 4672 1595 4716 1775 C 4737 1864 4759 1965 4766 2005 C 4770 2033 4775 2062 4777 2070 C 4799 2176 4799 2689 4776 2728 C 4774 2732 4770 2758 4766 2785 C 4753 2890 4706 3076 4660 3205 C 4412 3898 3842 4454 3147 4680 C 3059 4708 2929 4743 2865 4754 C 2714 4782 2618 4793 2497 4794 L 2398 4795 L 2399 3786 L 2399 2776 L 2246 2929 L 2093 3081 L 2091 3138 C 2089 3169 2087 3222 2085 3255 C 2083 3288 2079 3378 2075 3455 C 2072 3532 2067 3624 2065 3660 C 2053 3851 2046 3817 2214 4323 C 2300 4580 2370 4792 2370 4794 C 2370 4798 2240 4797 2237 4794 z M 3177 4095 C 3218 4076 3254 4060 3257 4060 C 3260 4060 3274 4052 3288 4041 C 3303 4031 3338 4010 3365 3995 C 3498 3922 3717 3733 3831 3594 C 4150 3204 4299 2731 4257 2235 C 4250 2151 4249 2143 4224 2015 C 4185 1820 4081 1566 3970 1395 C 3728 1025 3354 738 2958 620 L 2931 612 L 2931 2394 C 2931 3375 2933 4180 2936 4182 C 2943 4190 3086 4138 3177 4095 z" stroke-linecap="round" />
</g>
</svg>